<?xml version="1.0" standalone="no"?>
<!DOCTYPE svg PUBLIC "-//W3C//DTD SVG 20010904//EN"
 "http://www.w3.org/TR/2001/REC-SVG-20010904/DTD/svg10.dtd">
<svg version="1.0" xmlns="http://www.w3.org/2000/svg"
 width="1024.000000pt" height="1024.000000pt" viewBox="0 0 1024.000000 1024.000000"
 preserveAspectRatio="xMidYMid meet">
<metadata>
Created by potrace 1.14, written by Peter Selinger 2001-2017
</metadata>
<g transform="translate(0.000000,1024.000000) scale(0.100000,-0.100000)"
fill="#000000" stroke="none">
<path d="M5553 9810 c-35 -8 -50 -17 -100 -64 -32 -29 -63 -42 -63 -27 0 4
-20 8 -45 10 -28 1 -45 -2 -45 -9 0 -6 -4 -8 -10 -5 -11 7 -53 -19 -45 -27 6
-6 5 -6 -115 -9 -70 -3 -98 -7 -108 -19 -8 -8 -11 -9 -7 -2 8 16 -101 17 -111
1 -4 -8 -9 -7 -15 2 -5 8 -9 9 -9 4 0 -6 -17 -9 -41 -7 -24 3 -39 0 -36 -5 3
-5 -7 -7 -25 -5 -17 3 -61 0 -97 -6 -36 -7 -84 -14 -106 -17 -87 -12 -150 -31
-147 -45 2 -10 0 -11 -10 -2 -11 8 -42 4 -131 -20 -64 -17 -114 -35 -111 -39
3 -5 -2 -6 -10 -3 -16 6 -188 -50 -226 -73 -13 -9 -41 -17 -62 -19 -20 -1 -43
-6 -49 -10 -8 -4 -9 -3 -5 4 4 7 2 12 -3 12 -6 0 -11 -6 -11 -12 0 -9 -2 -10
-8 -2 -4 7 -27 11 -52 9 -25 -1 -58 -3 -73 -4 -16 0 -26 -5 -23 -9 2 -4 -11
-6 -30 -4 -19 2 -34 0 -34 -4 0 -5 -14 -10 -32 -10 -18 -1 -34 -6 -36 -13 -2
-6 -8 -9 -12 -6 -20 13 -170 -79 -260 -160 -93 -83 -168 -125 -223 -125 -12 0
-36 13 -53 29 -17 16 -44 36 -60 44 -17 9 -45 29 -63 46 -18 16 -38 28 -45 25
-8 -3 -17 -1 -21 5 -10 18 -28 12 -21 -6 5 -15 4 -15 -9 1 -14 18 -20 19 -74
9 -44 -9 -69 -9 -97 0 -29 9 -38 9 -42 -1 -2 -7 -11 -12 -20 -12 -15 0 -15 2
-2 10 13 8 12 10 -2 10 -10 0 -18 -5 -18 -11 0 -5 -4 -7 -10 -4 -6 4 -9 -3 -7
-16 1 -14 -4 -23 -15 -24 -10 -2 -18 1 -18 7 0 6 7 8 15 4 16 -6 19 2 7 21 -5
8 -24 3 -67 -19 -33 -16 -61 -34 -63 -39 -2 -5 -9 -9 -16 -9 -14 0 -89 -77
-130 -133 -37 -51 -109 -205 -101 -217 3 -6 2 -10 -4 -10 -14 0 -11 -148 5
-200 8 -25 14 -53 14 -63 0 -16 -2 -16 -38 2 -59 30 -201 63 -189 43 4 -5 0
-9 -8 -9 -8 0 -12 4 -9 9 7 11 -12 10 -76 -2 -114 -22 -132 -29 -125 -53 l6
-22 -13 22 c-11 19 -15 20 -32 8 -15 -12 -17 -22 -11 -61 9 -61 15 -75 28 -67
6 3 7 1 3 -5 -16 -26 88 -165 149 -199 17 -10 17 -13 -8 -54 -56 -93 -82 -122
-108 -125 -56 -5 -129 -60 -113 -85 4 -7 3 -10 -3 -6 -20 12 -30 -17 -32 -88
-1 -38 -5 -79 -8 -89 -6 -21 -180 -273 -194 -281 -4 -3 -23 4 -41 15 -19 12
-51 20 -76 20 -23 0 -59 8 -80 19 -32 16 -42 17 -77 6 -22 -6 -39 -17 -37 -24
1 -7 -2 -9 -9 -6 -6 4 -26 -8 -45 -26 -24 -24 -34 -42 -34 -64 0 -23 -10 -42
-34 -66 -19 -19 -50 -58 -70 -88 -61 -91 -48 -158 49 -254 25 -24 29 -37 32
-95 4 -88 4 -106 1 -178 -3 -53 0 -65 24 -97 16 -19 28 -39 28 -43 0 -5 -14
-45 -31 -90 -32 -86 -45 -97 -95 -88 -13 2 -24 1 -24 -4 0 -4 -16 -6 -36 -4
-29 4 -35 2 -29 -9 6 -11 5 -12 -5 -2 -11 10 -18 9 -34 -5 -11 -10 -16 -11
-11 -3 4 7 -6 3 -24 -10 -31 -23 -42 -36 -18 -23 6 4 2 -3 -10 -15 -22 -21
-23 -30 -24 -184 -4 -466 2 -720 16 -748 19 -36 19 -117 -1 -199 -12 -52 -15
-138 -14 -447 0 -210 2 -388 5 -395 2 -7 7 -68 9 -135 6 -164 37 -223 143
-278 32 -16 60 -31 62 -32 2 -1 3 -36 2 -77 -2 -80 13 -128 66 -208 16 -23 33
-74 44 -130 11 -50 30 -115 43 -142 31 -68 95 -148 155 -192 l48 -36 -2 -123
c-1 -121 -2 -123 -33 -166 -53 -71 -37 -151 49 -244 62 -67 90 -79 180 -76 93
2 126 -9 135 -46 12 -56 27 -84 54 -98 30 -15 254 -23 306 -11 45 11 48 -10
11 -85 -28 -58 -31 -73 -32 -159 0 -86 3 -101 32 -162 32 -68 93 -137 148
-166 19 -10 55 -16 98 -17 l69 0 -8 -80 c-12 -135 -7 -183 26 -252 53 -107
146 -173 246 -173 41 0 124 35 124 53 0 6 12 -1 27 -15 16 -14 38 -31 50 -37
68 -35 163 21 179 105 3 19 9 34 13 34 7 -1 60 -30 253 -142 73 -42 150 -84
170 -94 27 -13 41 -28 53 -60 35 -92 121 -131 176 -80 l27 25 58 -24 c33 -13
76 -27 96 -30 34 -6 39 -12 50 -48 16 -53 75 -112 127 -128 53 -16 109 0 158
45 l36 33 76 -19 c42 -10 150 -35 241 -54 157 -33 166 -36 192 -69 16 -18 45
-39 65 -46 26 -8 163 -12 492 -12 506 -1 486 -3 556 68 25 24 46 34 82 39 104
15 433 79 526 102 54 13 159 51 235 84 403 174 507 221 564 257 35 22 117 73
183 113 66 40 143 89 172 107 l52 34 42 -28 c37 -24 53 -28 113 -28 63 0 77 4
126 34 53 32 59 34 161 36 117 2 166 18 203 68 17 24 19 44 20 215 l1 188 28
28 c15 15 49 46 75 68 26 22 103 95 172 162 69 66 147 140 175 163 49 43 49
43 129 44 102 0 141 14 180 62 l31 39 5 162 c4 124 9 168 20 182 8 10 18 23
23 29 4 5 21 28 38 50 46 59 173 276 227 386 l47 97 58 5 c70 6 125 33 154 76
26 38 39 93 28 118 -5 10 -9 24 -11 32 -4 22 -54 69 -88 82 -36 15 -55 36 -56
62 0 15 4 17 23 10 12 -4 52 -8 89 -8 61 1 70 4 99 30 45 44 56 71 63 159 3
43 8 81 10 85 2 3 5 267 7 586 l3 580 -30 68 c-30 66 -30 70 -17 120 7 28 13
61 13 73 0 11 16 51 35 87 50 94 49 151 -2 208 l-37 41 18 46 c10 26 21 67 23
92 5 55 -70 507 -91 547 -21 42 -77 95 -93 89 -8 -3 -12 -2 -9 3 7 11 -43 30
-99 38 -22 3 -58 16 -81 29 -22 13 -54 24 -71 24 -29 0 -32 4 -78 118 -26 64
-52 123 -58 130 -5 6 -8 12 -6 12 196 10 216 13 267 37 96 46 137 154 97 259
-18 48 -97 119 -122 110 -7 -3 -13 -1 -13 4 0 6 -7 10 -15 10 -8 0 -23 21 -34
46 -18 40 -90 124 -106 124 -3 0 -18 9 -33 20 -31 22 -61 30 -146 37 -57 5
-58 5 -52 -18 7 -24 7 -24 -6 -2 -12 19 -16 20 -48 9 -19 -7 -44 -17 -54 -23
-18 -10 -25 -2 -74 86 -30 53 -58 98 -63 99 -5 2 -9 10 -9 18 0 8 -4 14 -8 14
-5 0 -18 18 -31 40 -12 22 -27 38 -32 35 -5 -3 -6 1 -3 9 9 23 -5 39 -22 25
-11 -9 -14 -8 -14 6 0 10 3 15 7 12 10 -11 33 13 33 34 0 11 -5 19 -11 19 -5
0 -8 -4 -5 -9 8 -13 -16 -19 -39 -10 -14 5 -15 8 -5 9 11 1 9 4 -4 9 -19 7
-19 8 2 29 l21 21 -27 -5 c-16 -3 -35 1 -47 10 -22 17 -23 15 42 95 43 52 78
133 92 208 5 26 5 43 -1 43 -5 0 -7 4 -4 9 8 12 -31 44 -43 36 -6 -3 -11 -1
-11 5 0 6 -10 10 -22 9 -13 -2 -28 0 -34 4 -7 4 -11 -2 -11 -19 0 -24 0 -24
18 -8 11 9 19 14 19 10 0 -4 -10 -17 -22 -28 -17 -14 -18 -18 -6 -14 10 3 20
0 24 -6 4 -7 3 -8 -4 -4 -7 4 -12 2 -12 -5 0 -9 -5 -8 -17 2 -10 8 -25 14 -33
13 -8 -1 -21 -2 -28 -3 -8 -1 -10 -6 -6 -13 5 -9 2 -9 -9 1 -13 11 -17 11 -17
1 0 -8 -3 -10 -6 -7 -4 4 1 18 10 32 9 14 12 25 6 25 -6 0 -9 4 -6 8 3 5 -1 9
-9 9 -9 0 -11 -4 -6 -11 5 -7 2 -22 -8 -37 -15 -24 -18 -25 -31 -11 -13 14
-12 15 1 10 9 -4 20 2 27 13 14 22 9 24 -19 9 -13 -7 -19 -7 -19 0 0 5 7 10
15 10 8 0 15 4 15 9 0 5 -27 1 -60 -11 -33 -11 -60 -24 -60 -30 0 -5 -5 -6
-11 -2 -6 3 -24 -4 -41 -16 -16 -12 -34 -18 -38 -14 -5 5 -10 113 -12 240 l-3
231 -28 42 c-18 27 -34 41 -43 37 -7 -3 -13 -1 -11 5 1 5 -12 16 -30 24 -25
11 -100 14 -333 14 l-300 1 -72 46 c-39 26 -103 77 -142 115 -39 38 -77 67
-84 64 -7 -3 -11 -1 -8 3 7 11 -52 45 -64 37 -6 -3 -10 -2 -10 3 0 9 -68 30
-100 31 -47 2 -124 23 -192 52 -69 30 -80 39 -102 79 -13 25 -29 44 -36 42 -6
-1 -9 2 -6 7 3 5 -1 14 -9 21 -12 10 -19 10 -32 -1 -16 -13 -17 -12 -5 3 11
14 9 18 -20 27 -18 6 -56 10 -84 10 -28 -1 -67 4 -87 10 -20 7 -41 10 -47 6
-5 -3 -10 -2 -10 3 0 5 -6 9 -12 9 -7 0 -62 12 -123 26 -132 30 -187 41 -197
39 -5 -1 -8 4 -8 11 0 16 -52 67 -68 67 -7 0 -12 5 -12 10 0 13 -76 13 -100 0
-16 -8 -22 -6 -36 15 -38 57 -141 92 -221 75z m-223 -110 c0 -5 -2 -10 -4 -10
-3 0 -8 5 -11 10 -3 6 -1 10 4 10 6 0 11 -4 11 -10z m-46 -38 c3 -5 -1 -9 -9
-9 -8 0 -12 4 -9 9 3 4 7 8 9 8 2 0 6 -4 9 -8z m-409 -42 c3 -6 -1 -7 -9 -4
-18 7 -21 14 -7 14 6 0 13 -4 16 -10z m-605 -96 c0 -8 -19 -13 -24 -6 -3 5 1
9 9 9 8 0 15 -2 15 -3z m-99 -81 c13 -16 12 -17 -3 -4 -10 7 -18 15 -18 17 0
8 8 3 21 -13z m-414 -30 c-9 -2 -15 -8 -12 -13 7 -11 -22 -7 -32 5 -4 4 -3 5
4 1 6 -3 14 -2 18 4 3 5 14 9 23 9 15 -1 15 -2 -1 -6z m41 -15 c9 -11 10 -18
2 -23 -6 -4 -9 -1 -8 7 2 7 -2 12 -9 11 -7 -2 -10 4 -6 13 3 8 6 14 7 12 1 -2
7 -10 14 -20z m-128 -12 c0 -3 -4 -8 -10 -11 -5 -3 -10 -1 -10 4 0 6 5 11 10
11 6 0 10 -2 10 -4z m174 -24 c3 -5 -1 -9 -9 -9 -8 0 -12 4 -9 9 3 4 7 8 9 8
2 0 6 -4 9 -8z m-1264 -128 c0 -8 -19 -13 -24 -6 -3 5 1 9 9 9 8 0 15 -2 15
-3z m-74 -42 c-17 -16 -18 -16 -5 5 7 12 15 20 18 17 3 -2 -3 -12 -13 -22z
m221 22 c-3 -3 -12 -4 -19 -1 -8 3 -5 6 6 6 11 1 17 -2 13 -5z m-283 -33 c3
-5 -2 -15 -12 -22 -15 -13 -16 -12 -4 3 10 13 10 17 0 21 -9 4 -9 6 -1 6 6 1
14 -3 17 -8z m101 -1 c3 -5 1 -10 -4 -10 -6 0 -11 5 -11 10 0 6 2 10 4 10 3 0
8 -4 11 -10z m-735 -630 c6 -11 9 -20 8 -20 -2 0 -11 9 -21 20 -9 11 -13 20
-7 20 5 0 14 -9 20 -20z m100 10 c0 -5 -5 -10 -11 -10 -5 0 -7 5 -4 10 3 6 8
10 11 10 2 0 4 -4 4 -10z m-125 -20 c-3 -5 -1 -10 6 -10 7 0 10 -3 6 -6 -9 -9
-28 6 -22 17 4 5 8 9 11 9 3 0 2 -4 -1 -10z m-43 -21 c2 -2 1 -3 -1 -2 -2 2
-9 -2 -16 -7 -8 -7 -12 -5 -12 4 0 12 22 16 29 5z m6620 -91 c-8 -8 -9 -4 -5
13 4 13 8 18 11 10 2 -7 -1 -18 -6 -23z m265 10 c-3 -8 -6 -5 -6 6 -1 11 2 17
5 13 3 -3 4 -12 1 -19z m-292 -18 c-3 -5 -12 -10 -18 -10 -7 0 -6 4 3 10 19
12 23 12 15 0z m-6660 -420 c-3 -5 -12 -10 -18 -10 -7 0 -6 4 3 10 19 12 23
12 15 0z m7332 -346 c-3 -3 -12 -4 -19 -1 -8 3 -5 6 6 6 11 1 17 -2 13 -5z
m20 -26 c-3 -7 -5 -2 -5 12 0 14 2 19 5 13 2 -7 2 -19 0 -25z m-20 -18 c1 -11
-2 -22 -6 -24 -6 -4 -7 26 -2 42 3 8 7 -1 8 -18z m123 14 c0 -8 -19 -13 -24
-6 -3 5 1 9 9 9 8 0 15 -2 15 -3z m-75 -43 c-9 -8 -36 -10 -30 -2 2 4 11 8 20
8 8 0 13 -3 10 -6z m92 2 c-4 -3 -1 -13 6 -22 11 -14 10 -14 -5 -2 -16 12 -16
31 -1 31 4 0 3 -3 0 -7z m-8073 -61 c3 -5 -1 -9 -9 -9 -8 0 -12 4 -9 9 3 4 7
8 9 8 2 0 6 -4 9 -8z m-56 -42 c-10 -6 -15 -19 -13 -32 3 -11 3 -19 1 -17 -3
2 -5 9 -6 14 -1 6 -7 16 -13 24 -9 11 -9 13 0 8 6 -4 14 -3 18 3 3 5 12 10 18
10 7 0 4 -5 -5 -10z m-48 -82 c0 -4 -4 -8 -9 -8 -6 0 -12 4 -15 8 -3 5 1 9 9
9 8 0 15 -4 15 -9z m-260 -1038 c0 -5 -2 -10 -4 -10 -3 0 -8 5 -11 10 -3 6 -1
10 4 10 6 0 11 -4 11 -10z m-50 -34 c0 -2 -8 -10 -17 -17 -16 -13 -17 -12 -4
4 13 16 21 21 21 13z"/>
<path d="M8471 8491 c-7 -5 -11 -13 -7 -19 3 -6 2 -13 -4 -17 -5 -3 -10 -12
-10 -18 0 -8 3 -9 8 -1 4 6 21 10 39 9 18 -1 30 2 27 7 -3 5 -11 6 -17 2 -7
-3 -4 1 6 9 12 10 15 17 7 22 -6 4 -17 -1 -24 -11 -10 -13 -15 -14 -21 -4 -5
8 -4 11 2 7 5 -3 10 0 10 8 0 8 -1 15 -1 15 -1 0 -7 -4 -15 -9z"/>
<path d="M8620 8061 c0 -6 5 -13 10 -16 6 -3 10 1 10 9 0 9 -4 16 -10 16 -5 0
-10 -4 -10 -9z"/>
</g>
</svg>
